<svg width="512" height="512" viewBox="0 0 512 512" fill="none" xmlns="http://www.w3.org/2000/svg">
  <rect width="512" height="512" rx="100" fill="url(#gradient)" />
  <path d="M256 128C211.817 128 176 163.817 176 208V224H160C143.274 224 130 237.274 130 254V398C130 414.726 143.274 428 160 428H352C368.726 428 382 414.726 382 398V254C382 237.274 368.726 224 352 224H336V208C336 163.817 300.183 128 256 128ZM208 208C208 181.49 229.49 160 256 160C282.51 160 304 181.49 304 208V224H208V208ZM256 272C267.782 272 277 281.218 277 293C277 301.432 272.096 308.621 264.444 312.507L272 352H240L247.556 312.507C239.904 308.621 235 301.432 235 293C235 281.218 244.218 272 256 272Z" fill="white"/>
  <defs>
    <linearGradient id="gradient" x1="0" y1="0" x2="512" y2="512" gradientUnits="userSpaceOnUse">
      <stop stop-color="#6366f1"/>
      <stop offset="1" stop-color="#8b5cf6"/>
    </linearGradient>
  </defs>
</svg>
